REM DIRINDEX 1\2,1\3,1\4,1\5,1\6
REM DIRNAME folder01,folder02,folder03,folder04,folder05,folder06
TITLE ""
FILE "DISC5Track11.mp3" MP3
  TRACK 01 AUDIO
    TITLE "0:"
    INDEX 01 00:00:00
  TRACK 02 AUDIO
    TITLE "3:cjc129_4173"
    INDEX 01 00:00:03
  TRACK 03 AUDIO
    TITLE "0:"
    INDEX 01 00:01:40
  TRACK 04 AUDIO
    TITLE "5:cjc129_4174"
    INDEX 01 00:01:73
  TRACK 05 AUDIO
    TITLE "0:"
    INDEX 01 00:04:31
  TRACK 06 AUDIO
    TITLE "4:cjc129_4175"
    INDEX 01 00:05:22
  TRACK 07 AUDIO
    TITLE "0:"
    INDEX 01 00:06:59
  TRACK 08 AUDIO
    TITLE "6:cjc129_4176"
    INDEX 01 00:07:17
  TRACK 09 AUDIO
    TITLE "0:"
    INDEX 01 00:11:05
  TRACK 10 AUDIO
    TITLE "3:cjc129_4177"
    INDEX 01 00:12:56
  TRACK 11 AUDIO
    TITLE "0:"
    INDEX 01 00:14:09
  TRACK 12 AUDIO
    TITLE "5:cjc129_4178"
    INDEX 01 00:14:41
  TRACK 13 AUDIO
    TITLE "0:"
    INDEX 01 00:18:74
  TRACK 14 AUDIO
    TITLE "4:cjc129_4179"
    INDEX 01 00:19:65
  TRACK 15 AUDIO
    TITLE "0:"
    INDEX 01 00:21:17
  TRACK 16 AUDIO
    TITLE "6:cjc129_4180"
    INDEX 01 00:21:51
  TRACK 17 AUDIO
    TITLE "0:"
    INDEX 01 00:26:38
  TRACK 18 AUDIO
    TITLE "3:cjc129_4181"
    INDEX 01 00:28:12
  TRACK 19 AUDIO
    TITLE "0:"
    INDEX 01 00:29:50
  TRACK 20 AUDIO
    TITLE "5:cjc129_4182"
    INDEX 01 00:30:05
  TRACK 21 AUDIO
    TITLE "0:"
    INDEX 01 00:32:17
  TRACK 22 AUDIO
    TITLE "4:cjc129_4183"
    INDEX 01 00:33:09
  TRACK 23 AUDIO
    TITLE "0:"
    INDEX 01 00:34:47
  TRACK 24 AUDIO
    TITLE "6:cjc129_4184"
    INDEX 01 00:35:02
  TRACK 25 AUDIO
    TITLE "0:"
    INDEX 01 00:39:47
  TRACK 26 AUDIO
    TITLE "3:cjc129_4185"
    INDEX 01 00:41:22
  TRACK 27 AUDIO
    TITLE "0:"
    INDEX 01 00:42:72
  TRACK 28 AUDIO
    TITLE "5:cjc129_4186"
    INDEX 01 00:43:29
  TRACK 29 AUDIO
    TITLE "0:"
    INDEX 01 00:46:43
  TRACK 30 AUDIO
    TITLE "4:cjc129_4187"
    INDEX 01 00:47:34
  TRACK 31 AUDIO
    TITLE "0:"
    INDEX 01 00:49:08
  TRACK 32 AUDIO
    TITLE "6:cjc129_4188"
    INDEX 01 00:49:41
  TRACK 33 AUDIO
    TITLE "0:"
    INDEX 01 00:53:68
  TRACK 34 AUDIO
    TITLE "3:cjc129_4189"
    INDEX 01 00:55:42
  TRACK 35 AUDIO
    TITLE "0:"
    INDEX 01 00:57:07
  TRACK 36 AUDIO
    TITLE "5:cjc129_4190"
    INDEX 01 00:57:43
  TRACK 37 AUDIO
    TITLE "0:"
    INDEX 01 01:00:23
  TRACK 38 AUDIO
    TITLE "4:cjc129_4191"
    INDEX 01 01:01:15
  TRACK 39 AUDIO
    TITLE "0:"
    INDEX 01 01:02:55
  TRACK 40 AUDIO
    TITLE "6:cjc129_4192"
    INDEX 01 01:03:14
  TRACK 41 AUDIO
    TITLE "0:"
    INDEX 01 01:08:50
  TRACK 42 AUDIO
    TITLE "3:cjc129_4193"
    INDEX 01 01:10:26
  TRACK 43 AUDIO
    TITLE "0:"
    INDEX 01 01:11:58
  TRACK 44 AUDIO
    TITLE "5:cjc129_4194"
    INDEX 01 01:12:15
  TRACK 45 AUDIO
    TITLE "0:"
    INDEX 01 01:14:14
  TRACK 46 AUDIO
    TITLE "4:cjc129_4195"
    INDEX 01 01:15:07
  TRACK 47 AUDIO
    TITLE "0:"
    INDEX 01 01:16:38
  TRACK 48 AUDIO
    TITLE "6:cjc129_4196"
    INDEX 01 01:16:71
  TRACK 49 AUDIO
    TITLE "0:"
    INDEX 01 01:22:23
  TRACK 50 AUDIO
    TITLE "3:cjc129_4197"
    INDEX 01 01:24:00
  TRACK 51 AUDIO
    TITLE "0:"
    INDEX 01 01:26:13
  TRACK 52 AUDIO
    TITLE "5:cjc129_4198"
    INDEX 01 01:26:48
  TRACK 53 AUDIO
    TITLE "0:"
    INDEX 01 01:28:47
  TRACK 54 AUDIO
    TITLE "4:cjc129_4199"
    INDEX 01 01:29:39
  TRACK 55 AUDIO
    TITLE "0:"
    INDEX 01 01:31:53
  TRACK 56 AUDIO
    TITLE "6:cjc129_4200"
    INDEX 01 01:32:12
  TRACK 57 AUDIO
    TITLE "0:"
    INDEX 01 01:36:29
  TRACK 58 AUDIO
    TITLE "3:cjc129_4201"
    INDEX 01 01:38:10
  TRACK 59 AUDIO
    TITLE "0:"
    INDEX 01 01:39:41
  TRACK 60 AUDIO
    TITLE "5:cjc129_4202"
    INDEX 01 01:40:01
  TRACK 61 AUDIO
    TITLE "0:"
    INDEX 01 01:42:08
  TRACK 62 AUDIO
    TITLE "4:cjc129_4203"
    INDEX 01 01:43:02
  TRACK 63 AUDIO
    TITLE "0:"
    INDEX 01 01:44:32
  TRACK 64 AUDIO
    TITLE "6:cjc129_4204"
    INDEX 01 01:44:70
  TRACK 65 AUDIO
    TITLE "0:"
    INDEX 01 01:49:08
